<svg xmlns="http://www.w3.org/2000/svg" viewBox="0 0 266.89 449.62"><defs><style>.cls-1{fill:#e6e7e8;}</style></defs><g id="Layer_21" data-name="Layer 21"><path class="cls-1" d="M265.72,207.68q-1.92-2.6-4.34-.81a80.43,80.43,0,0,1-19.61,9.64q-27.35,8.93-61.86,5.24a280.65,280.65,0,0,1-69.7-17l-.6-.09Q115,126.69,99.17,71.54q-7-24.75-18.62-40.5Q58.62,1.25,20.18,4.2a46.5,46.5,0,0,0-18.8,6.37v7.49c.09-.07.17-.15.27-.22a37.91,37.91,0,0,1,19.12-7.4Q55.58,8,75.1,34.52q11.36,15.4,18.08,39,15.19,52.92,10,128.57a301.29,301.29,0,0,1-59.67-32q-26.49-18.56-41.92-39.5l-.25-.36v10.49q15.26,18.47,38.24,34.54a308.84,308.84,0,0,0,63.2,33.58q-1.18,22-3,44.15Q98,276.23,96.67,299.1a274.74,274.74,0,0,0-86.22-18.22c-3-.16-6-.27-9.07-.36v23.26q51.3-.79,94.24,12.39a502.76,502.76,0,0,0,.79,58.72A201.32,201.32,0,0,0,106.57,426a176.43,176.43,0,0,0,9.81,23.26h7.12Q106.35,419.81,102.86,375a466.32,466.32,0,0,1-.81-56.57q34.74,12.33,50,28.1T172,368.65q17.34,23.55,25.18,58.11a74.73,74.73,0,0,1,1,22.53h6.24a70.25,70.25,0,0,0-1-23.89l0-.3q-9.21-39.69-29.62-67.4-27.3-37.05-70.88-56,1.34-24,3.17-48.28,1.32-8.72,3-42.3a284.38,284.38,0,0,0,71.4,17q35.31,3.51,63.3-5.63A82.62,82.62,0,0,0,265,212.19a3.07,3.07,0,0,0,1.25-2.11A3.14,3.14,0,0,0,265.72,207.68Z"/></g></svg>