<svg xmlns="http://www.w3.org/2000/svg" viewBox="0 0 571.06 366.96"><defs><style>.cls-1{fill:#d4af34;}.cls-2{fill:#d5af31;fill-rule:evenodd;}</style></defs><g id="Layer_1_copy_15" data-name="Layer 1 copy 15"><path class="cls-1" d="M294.07,132.48q-5.83-9-17.59-14.39a1.08,1.08,0,0,0-.65-.19,1.37,1.37,0,0,0-.57.19,1.17,1.17,0,0,0-.56.56,1.46,1.46,0,0,0-.19.66,1.44,1.44,0,0,0,.85,1.31q10.9,5,16.36,13.36a38.45,38.45,0,0,1,6.12,21.45,58.48,58.48,0,0,1-4.71,22.48,76.8,76.8,0,0,1-15.33,23.61q-12.14,13-25.58,17.73T228.14,224a76.5,76.5,0,0,1-18-2.26q-23.89-6.5-32.68-20.41a56.55,56.55,0,0,1-8.8-30.85q0-33,24.27-82.59,11.19,1,22.57,2.92h.29c.87,0,1.31-.47,1.31-1.41A1.41,1.41,0,0,0,216,88q-11-1.69-21.72-2.83,16.08-33.1,40.63-75a6,6,0,0,0,.85-2.92A5.12,5.12,0,0,0,233.4,3a6.4,6.4,0,0,0-3.66-1.13,5.25,5.25,0,0,0-4.52,2.82q-14.86,18.72-34.1,40.54T156,83.38q-21.54,0-44.39,2.25,25.86-28.87,25.86-52.1,0-12.42-7.24-20.6a25.61,25.61,0,0,0-5.36-4.71Q116.4,2.4,104.45,2.39q-13.92,0-28.88,7.43Q62,2.77,43.69,1.26,39.92,1,36.16,1A97.79,97.79,0,0,0,2.55,6.65V9.59a68.22,68.22,0,0,1,7.74-2.4A109.5,109.5,0,0,1,36.07,3.8a87.12,87.12,0,0,1,34.42,6.68l2,.94q-14.2,7.82-28.69,22a167.79,167.79,0,0,0-25.4,31.93Q7.48,83.1,5.26,95.13T3.05,112.54A55.22,55.22,0,0,0,8.6,136.71q-3.09,0-6-.23v2.74c2.48.2,5,.31,7.65.31q10.15,15.24,32.92,15.24a65.39,65.39,0,0,0,16.37-2.16,128.74,128.74,0,0,0,33-14.49,272.25,272.25,0,0,0,33.21-23.75Q142.08,100.78,157,86.2q12,0,24.45.75-19.75,44.21-19.75,77.22v4.05q1.5,43.74,47.78,56.25a79.36,79.36,0,0,0,18.63,2.35,61.8,61.8,0,0,0,21.07-3.58,75.46,75.46,0,0,0,30.57-19.75,79.62,79.62,0,0,0,16-24.55,62,62,0,0,0,4.89-23.61A41.1,41.1,0,0,0,294.07,132.48ZM14.53,112.54a66.66,66.66,0,0,1,.56-8.47A112,112,0,0,1,27,67.62,161,161,0,0,1,49.52,34.56q12.13-13.73,24.36-20.7a4.59,4.59,0,0,1,3.67-1.61,5.41,5.41,0,0,1,1.66.25,4.32,4.32,0,0,1,.67-.28c-.43-.27-.86-.54-1.3-.8Q92,5.12,104.45,5.12q15.24,0,23.61,9.59,5.26,6,5.92,11.53c.44,3.66.66,6.16.66,7.47q0,23.15-27.28,52.3-15.23,1.5-30.1,3.67A1.34,1.34,0,0,0,76,91.18a1.3,1.3,0,0,0,1.41,1.23h.19q13.17-1.89,26.62-3.3-3.11,3.11-6.58,6.31Q60.24,129.19,24,135.3a30.06,30.06,0,0,1-3.48.56A45.76,45.76,0,0,1,14.53,112.54Zm107.23,1.74A244,244,0,0,1,89,137.09q-16.36,9.41-26,11.19a87.24,87.24,0,0,1-13.77,1.79,38.7,38.7,0,0,1-18.63-4.61,27,27,0,0,1-8.28-7.06A12.44,12.44,0,0,0,24.5,138q37.24-6.3,75.06-40.54,4.89-4.42,9.12-8.85a442.45,442.45,0,0,1,44.49-2.44Q138.13,100.87,121.76,114.28Zm38.09-30.9q23.61-23.72,39.69-41.58l11.57-12.6q-17.21,30.19-28.4,55Q171.13,83.47,159.85,83.38Z"/><path class="cls-1" d="M215.82,155.05a10.07,10.07,0,0,1-8-4.09,25.67,25.67,0,0,1-4.32-9.17,42.07,42.07,0,0,1-1.46-9.6q0-1.41,1.32-1.41t1.41,1.32a46.25,46.25,0,0,0,1.31,8.09q2.64,11.94,9.69,12.13a4.36,4.36,0,0,0,3.48-1.88,11.57,11.57,0,0,0,1.41-6.3,55.47,55.47,0,0,0-.37-6.16,61.12,61.12,0,0,1-.38-6.82,72.54,72.54,0,0,1,.47-8.09,28.68,28.68,0,0,1,6.82-13.73,21.34,21.34,0,0,1,12.93-7.62l.76-.1c1.88,0,2.82,1,2.82,3a17,17,0,0,1-1.7,6,32.39,32.39,0,0,1-5.12,8,27.58,27.58,0,0,1-7.67,6.44c-.37,2.51-.69,5-.94,7.43a65.15,65.15,0,0,1-2.63,14.3q6.39-3.76,18-17.59,5.55-6.68,6.49-6.68a1.35,1.35,0,0,1,1,.42,1.28,1.28,0,0,1,.42.9,1.61,1.61,0,0,1-.37,1l-3,3.39Q243.94,133,238,139.25a118.88,118.88,0,0,1-11.94,11Q220,155,215.82,155.05Zm13.92-33.48a26.24,26.24,0,0,0,5.78-5.7,37.06,37.06,0,0,0,3.9-6.34,12.28,12.28,0,0,0,1.42-4.14c0-.44-.16-.66-.47-.66q-2.55.47-4.8,3.62a31.83,31.83,0,0,0-3.76,7A44.41,44.41,0,0,0,229.74,121.57Z"/><path class="cls-1" d="M274.23,155.52q-2.93,0-2.92-4.51a39.77,39.77,0,0,1,1-6.87,77.64,77.64,0,0,1,4.7-13.64,84.16,84.16,0,0,1,6.86-13.45q-6.11,4.89-20.41,18.53-19.65,18.72-22.85,18.72h-.1a1.58,1.58,0,0,1-1.31-1.6q0-1.78,5.92-17.78,4.43-12,10.91-26.9,15.62-35.37,29.44-47.59,4.8-4.24,9.32-4.24a10.55,10.55,0,0,1,5.26,1.51l.19.19q2.54,2.16,2.54,7a28,28,0,0,1-4,13.73,68.32,68.32,0,0,1-14.11,15.9q-9.6,8.08-17.69,11.19l-.56.09a1.09,1.09,0,0,1-.94-.56q-16.94,30.86-22.76,45.52c1.56-1.25,3.89-3.32,7-6.2q10.44-9.6,11.94-11,8.75-8.28,15.95-14.58t9.64-6.3h.09a1.68,1.68,0,0,1,1.32,1.79l-.1,1a153.56,153.56,0,0,1-5.08,15q-5.18,13.17-5.17,16.83c0,1.38.38,2.07,1.13,2.07q1.61,0,5.83-3.57a134.27,134.27,0,0,0,14-14.86q7-8.28,8.09-8.28a1.44,1.44,0,0,1,.94.42,1.31,1.31,0,0,1,.47,1,1.16,1.16,0,0,1-.47.94q-3.58,3.86-7.43,8.37l-.29.29a140.7,140.7,0,0,1-13.45,14.29Q278.08,155.52,274.23,155.52Zm-7.34-52.86q7.33-3,16-10.25a66.71,66.71,0,0,0,13.45-15.34q3.76-6.48,3.76-12.13a7,7,0,0,0-1.5-4.89Q290.12,60.71,266.89,102.66Z"/><path class="cls-1" d="M308.47,154.67l-1.42-.09q-5.55-.57-5.55-10V144q.86-11.65,8.52-28.83a209.78,209.78,0,0,1,18.24-32.68q10.59-15.52,20-22.3,4.51-2.82,7.62-2.82a5.54,5.54,0,0,1,3.1.85q3.39,2.16,3.39,7.52c0,.44-.09,1.87-.28,4.28s-2.2,6.29-6,11.62Q345,95.8,325,111.88a28.9,28.9,0,0,1-2.35,1.78,19.14,19.14,0,0,0-2.17,1.6q-14,28.32-14,34.52,0,2.64,2.16,2.64,3.39,0,10-4.24a71.27,71.27,0,0,0,8.94-6.58A176.29,176.29,0,0,0,347,123.07a1.45,1.45,0,0,1,1-.47,1.35,1.35,0,0,1,1,.42,1.28,1.28,0,0,1,.42.9,1.61,1.61,0,0,1-.37,1,167.46,167.46,0,0,1-19.75,18.81Q316.36,154.68,308.47,154.67Zm14.86-45Q343.18,93.45,353.9,79.9q5.82-8.19,5.83-14.86c0-2-.51-3.39-1.51-4.14a1.94,1.94,0,0,0-1.31-.47q-2.07,0-5.55,3.57Q340.35,76.14,323.33,109.71Z"/><path class="cls-1" d="M346.93,156.46q-.37,0-1.92-.09a4.68,4.68,0,0,1-3.15-2.12q-1.61-2-1.6-6.72.56-12.22,9-28.41T367,96.07A11.72,11.72,0,0,1,372.71,94a6,6,0,0,1,3.67,1.59q2.63,2.18,2.63,8.47,0,9-7.43,16.74a21.52,21.52,0,0,1-9.6,5.83,15.86,15.86,0,0,1-4.23.57,19.21,19.21,0,0,1-3.2-.28q-7,13.63-7,21,0,4.51,3.39,4.52a12.3,12.3,0,0,0,5.08-1.51,59.89,59.89,0,0,0,12.88-9q6.12-5.55,11.86-11.47,7.43-7.81,8.37-7.81a1.39,1.39,0,0,1,1,.42,1.37,1.37,0,0,1,.42,1,2.23,2.23,0,0,1-.47,1q-3.76,3.57-7.62,7.61-5.75,5.93-11.9,11.48a64,64,0,0,1-12.93,9.12Q351,156.47,346.93,156.46Zm10.73-32.07q6.68,0,11.94-5.55a25,25,0,0,0,5.37-8.09,16.82,16.82,0,0,0,1.41-6.87c0-2.13-.54-3.2-1.6-3.2a5.68,5.68,0,0,0-2.83,1.23q-6.58,5-16,22.38Z"/><path class="cls-1" d="M365.09,243.37a14.59,14.59,0,0,1-2.59-.51c-1.35-.35-2.4-2.21-3.15-5.6a30.9,30.9,0,0,1-.56-6.11,44.7,44.7,0,0,1,3.48-17.5,123.19,123.19,0,0,1,22.52-34.57,234.57,234.57,0,0,1,30.9-27.7Q422.1,140,429,126.69t9.93-20q-4.62,5.37-11.1,14.49t-14,18.34a82,82,0,0,1-15.1,14.77q-5.46,4-10.53,4a13.18,13.18,0,0,1-3.76-.56q-6-2.26-6-8.47,0-9.59,10-25.58,5.35-8.57,7.24-11.1a3.65,3.65,0,0,1,2.82-1.69c1.07,0,1.6.69,1.6,2.07a10.16,10.16,0,0,1-1.22,3.95q-7,12.69-9.22,22.85a16.45,16.45,0,0,0-.57,3.95q0,5.84,5.36,5.84c1.95,0,4.61-1.24,8-3.72s7.43-6.58,12.13-12.32,9.11-11.41,13.22-17,7.35-9.73,9.73-12.37c1.63-1.63,2.83-2.44,3.58-2.44s1.22.72,1.22,2.16q0,4.71-12.7,37A319.63,319.63,0,0,1,459,122.79a1.46,1.46,0,0,1,.66-.19A1.25,1.25,0,0,1,461,124a1.26,1.26,0,0,1-.75,1.22,333.22,333.22,0,0,0-32.55,20.32q-2.44,6-7.9,17.5-9,19.37-21.68,41.76t-23.94,33.48Q368.57,243.38,365.09,243.37Zm-.47-2.91c1.57,0,3.79-1.73,6.68-5.18q11.76-15.89,36.12-65.46,4.6-9.51,6.49-12.79a237.18,237.18,0,0,0-28.32,26,114.4,114.4,0,0,0-20.78,31.79,45.56,45.56,0,0,0-3.48,17.31q0,5.07,1.69,7.43A1.93,1.93,0,0,0,364.62,240.46Z"/><path class="cls-1" d="M313.55,369.44q-2.07,0-12-.84T274.72,358a194.61,194.61,0,0,1-31.9-23.26q-14.2-12.81-26.16-24.76l-6.45.09H207a129,129,0,0,1-23.12,28.78q-13.32,12.33-33.4,18.4h-.28a2,2,0,0,1-.94-.32,1.25,1.25,0,0,1-.56-1.17c0-.56.34-1,1-1.21a58.17,58.17,0,0,0,26.35-17.43,154.13,154.13,0,0,0,19.71-28.17q-12.24-2.43-16.72-9.06a15.28,15.28,0,0,1-3.09-8.6,20.09,20.09,0,0,1,1.4-6q1.41-4,9.07-4.63l1.21-.09q7.49,0,18.69,8.69,14.67-28.79,25.79-44.66a124.88,124.88,0,0,1,24.66-26.17c-9.15,3.56-18.57,6.72-28.53,6.72-5.18,0-10.43-1.82-15.47-2.7l-.57.84A52.22,52.22,0,0,1,196,239.11a121.76,121.76,0,0,1-35.51,14.95,208.52,208.52,0,0,1-51.85,6.72,125.9,125.9,0,0,1-29.29-3.22q-13.5-3.23-20.51-10.32-6.26-6.18-6.26-13.46,0-7.75,6.35-14.95,7.75-8.87,24.2-14.57,16-5.61,39.15-5.61a123.85,123.85,0,0,1,30.18,3.92q13.72,3.47,26.81,7.85l.47.19a266.24,266.24,0,0,0,31.58,8.69,31.32,31.32,0,0,0,3.55-14.86q0-13-10.46-29.15a2,2,0,0,1-.19-.74,1.24,1.24,0,0,1,1.4-1.41,1.34,1.34,0,0,1,1.12.66q10.94,16.9,10.93,30.55a34.45,34.45,0,0,1-3.45,15.42,83.59,83.59,0,0,0,13.64,1.12,108.47,108.47,0,0,0,18-1.87q10.8-1.87,26.3-11.77a1.33,1.33,0,0,1,2.15,1.12c0,.5.38.19,0,.5-11.46,8-24,23.45-36.34,45q-5.9,10.28-17.57,32.42l-5.6,10.28,4.11,3.83q11.58-1.22,20.46-2.66t11-2q16-3.47,33.86-9A169.47,169.47,0,0,0,318,272.28a79.89,79.89,0,0,0,25.79-22.71q9.94-13.74,10-33.54-.18-15.89-10.46-23.83A18.64,18.64,0,0,0,339.8,190a1.26,1.26,0,0,1-.75-1.21,1.91,1.91,0,0,1,.1-.66,1.26,1.26,0,0,1,1.21-.74c.69,0,2.21.87,4.58,2.61q11.3,8.79,11.49,26,0,36.34-36,60.17-27.29,18.12-68.3,29.05-6.91,2-24.2,4,7.84,7.85,19.9,19a216.24,216.24,0,0,0,30.51,24.24q15.93,10.42,32.47,12.76a46.89,46.89,0,0,0,5.79.37q13.55,0,27.09-8.6,10.09-6.26,11.5-20.74c.12-.87.56-1.31,1.3-1.31q1.5,0,1.5,1.41-1.59,16-12.8,23Q329.34,369.45,313.55,369.44ZM108.37,258a209.43,209.43,0,0,0,51.29-6.54,119.3,119.3,0,0,0,34.85-14.58,52.3,52.3,0,0,0,15.42-15,277.14,277.14,0,0,1-30.83-8.5l-.66-.28q-12.88-4.29-26.44-7.76a124.39,124.39,0,0,0-29.8-3.83q-22.53,0-38.12,5.42t-23,13.83q-5.7,6.45-5.7,12.89,0,6.27,5.33,11.68,6.72,6.73,22,10.28A115.87,115.87,0,0,0,108.37,258Zm91.75,43.17,2.43-4.68q-10.38-9.06-16.54-9.9a18,18,0,0,0-2.43-.19q-5,0-5,3.83,0,3,4.67,6.64T200.12,301.15Z"/><path class="cls-1" d="M315.29,347.68c-.24,0-.88,0-1.91-.1a4.63,4.63,0,0,1-3.13-2.1q-1.59-2-1.59-6.68.55-12.15,8.92-28.22t17.62-22.89a11.54,11.54,0,0,1,5.69-2.05,6,6,0,0,1,3.65,1.58q2.61,2.16,2.61,8.41,0,9-7.38,16.63a21.32,21.32,0,0,1-9.53,5.8,16,16,0,0,1-4.2.56,19,19,0,0,1-3.18-.28q-6.92,13.55-6.91,20.83,0,4.49,3.36,4.49a12.31,12.31,0,0,0,5.05-1.5,59.37,59.37,0,0,0,12.8-9q6.07-5.51,11.77-11.4,7.38-7.76,8.32-7.75a1.44,1.44,0,0,1,1.4,1.4,2.3,2.3,0,0,1-.47,1q-3.74,3.55-7.57,7.57-5.7,5.88-11.82,11.4A63.89,63.89,0,0,1,326,344.5Q319.3,347.68,315.29,347.68ZM326,315.81q6.63,0,11.86-5.51a24.81,24.81,0,0,0,5.33-8,16.78,16.78,0,0,0,1.4-6.82q0-3.18-1.59-3.18a5.65,5.65,0,0,0-2.8,1.21q-6.54,5-15.89,22.24Z"/><path class="cls-1" d="M358.16,346a8.47,8.47,0,0,1-4.58-1.49c-1.8-1.18-2.71-4.08-2.71-8.69q0-8.69,4.26-20.14a82.2,82.2,0,0,1,10-19.48c1.06-1.24,2-1.86,2.9-1.86,1.36,0,2.05,1,2.05,2.89s-1.56,7.07-4.67,15.79Q358,334.51,358,339.73c0,2.56.75,3.83,2.25,3.83q3.82,0,12.8-8.78,6.81-6.72,12.7-13.78a96.2,96.2,0,0,0,7.57-9.86c-2.24-3.17-3.36-6-3.36-8.59a13.07,13.07,0,0,1,1.77-5.42c1.44-2.62,4-3.93,7.67-3.93q4.2,0,5.69,4.4a6,6,0,0,1,.38,2.24q0,4.49-4.49,12.33a24.16,24.16,0,0,0,10.94,2.52,34.42,34.42,0,0,0,9.9-1.58,1.77,1.77,0,0,1,.93-.29c1.13,0,1.69.53,1.69,1.59a1.87,1.87,0,0,1-.66,1.5,44.91,44.91,0,0,1-12.24,1.87A29.71,29.71,0,0,1,399,315.16a93.94,93.94,0,0,1-8.59,9.48,146.68,146.68,0,0,1-14.3,12.57Q364.7,346,358.16,346ZM395,307.87q3.64-7.38,3.65-10.27c0-1.06-.35-1.59-1-1.59s-1.43.56-2.24,1.68a9,9,0,0,0-.38,10.18Z"/><path class="cls-1" d="M419.25,345.25h-.75q-5.88,0-8-4.77a8.72,8.72,0,0,1-.66-3.55q0-4.86,3.65-12.52a85.49,85.49,0,0,1,10.6-15.6q6.21-7.29,8.88-9.77c1.77-1.65,2.94-2.47,3.5-2.47,1,0,1.49.46,1.49,1.4a7,7,0,0,1-.32,2.15q-.33,1-7.43,11.58-13.92,20.57-13.92,27.19,0,3.74,3.74,3.74,10,0,38.49-27.28l2-2.06a1.43,1.43,0,0,1,2.24,0,1.64,1.64,0,0,1,.47,1.16c0,.5-.78,1.53-2.33,3.09Q433.17,344.59,419.25,345.25Zm20.93-51.2a3.21,3.21,0,0,1-2.39-1,3.5,3.5,0,0,1,0-4.86,3.17,3.17,0,0,1,2.39-1,3.07,3.07,0,0,1,2.29,1,3.5,3.5,0,0,1,0,4.86A3.11,3.11,0,0,1,440.18,294.05Z"/><path class="cls-1" d="M493.88,345.62h-.28l-.09-.09c-2.24-.75-3.37-2.49-3.37-5.24l.29-3.55q.65-5.7,9.43-24,5.7-11.87,5.7-14.57c0-.81-.25-1.22-.75-1.22q-4.11,0-26.25,26.63-2.43,3.36-11.77,13.73-7,7.76-9.63,7.76a2.11,2.11,0,0,1-2-1.5,19.47,19.47,0,0,1-2-8.69q0-4.67,3.08-12.66a75.27,75.27,0,0,1,9.35-16.67q8.59-11.78,10-11.78l.8.05a1.91,1.91,0,0,1,1.17.61,1.63,1.63,0,0,1,.56,1.12,1.73,1.73,0,0,1-.28.84q-1.7,3.18-6.08,12.57t-8.55,18.92A123.81,123.81,0,0,0,458.1,341q3.64-2.52,17.1-18.5a.53.53,0,0,1,.37-.37q9.35-11.49,17.94-20.37,7.67-7.94,11.68-7.94a3.52,3.52,0,0,1,2.43.93h.09v.1a13,13,0,0,1,3.18,8.68,49,49,0,0,1-.56,5.42q-1.21,7.49-11.12,23.64-4.68,7.58-4.67,9.16a.77.77,0,0,0,.18.56q3.27-.56,32.52-28.4l.65-.66a1.71,1.71,0,0,1,1.22-.56,1.69,1.69,0,0,1,1.16.47,1.55,1.55,0,0,1,.52,1.21,1.53,1.53,0,0,1-.47,1.12Q501,345.44,493.88,345.62Z"/><path class="cls-2" d="M482.25,170.38c-2.11-5.09-7-7.75-12.39-8.26-13.87-1.35-23.41,10.47-19.41,23.33.37,1.2.61,3,1.44,3.93.59.66,1.62.31,2.07,1.44-1.31,1.85-3.36,1.68-5,2.48-6.67,3.32-10.39,12.24-8.67,22.72,1.27,7.82,6.73,14.33,15.9,15.49,2.74.35,6.67,1.15,8.88-.62,2-1.61,1.7-6.35,6.2-5.16,1.48,3.45-2.05,5.18-4.14,6.4.57,12.48,20.34,12.34,19.63-1.86-.3-6-4.67-10.53-8.27-14.45-.78-.87-2.71-3.9-3.51-3.93-.56,0-3.54,3.56-4.75,4.54-2.26,1.86-4.66,3.66-9.09,3.1a8.59,8.59,0,0,1-7-5.37c-2.9-8.22,4.49-13.26,7.85-16.93-4.84-6.61-5.23-21.07,5.16-20.66,4,.16,7,3.56,6.41,9.09-.43,3.87-2.21,5.75-4.34,7.85-.21.2-2.08,2-2.07,1.86-.08.72,4.23,5.18,4.75,5.78a69,69,0,0,0,5.17,5.16c3.49-5.16,5.8-8.81,9.71-12.8s9.7-9.11,19-8.26a15.44,15.44,0,0,1,10.53,5.57c6.08,8.13,1.55,20.94-8.26,22.1-6.93.82-14.25-4.67-11.15-12.18a5.57,5.57,0,0,1,6.19-3.31,3.84,3.84,0,0,1,2.48,2.28c1.19,4.59-3.44,4.6-5.58,6.4-.43,5.18,6.08,6.28,10.12,4.34,4.8-2.31,6.08-8.45,5-13.84a12.9,12.9,0,0,0-14.25-10.12c-5.71.53-10.26,4.79-13.42,8.47-3.58,4.14-5.92,8.35-9.09,12.59,5.23,5.74,13.29,12.35,12,24.17a13.47,13.47,0,0,1-8.26,10.74,13.29,13.29,0,0,1-9.71,0c-3.56-1.82-6.31-4.43-6.82-9.3-1.88.16-3.39,1-4.75,1.24-14.2,2.6-24.46-6.11-25.61-18.79-1.11-12.21,5.45-19.27,12.81-24.17a31,31,0,0,1-1.86-4.95c-2.65-14.08,7.49-24.23,19-25.2,6.65-.56,13.59,1.77,16.94,5.58,1.42,1.62,4.11,6.85,1.44,8.67C478.81,178.73,476.52,169.56,482.25,170.38Zm-12,10.12a4.18,4.18,0,0,0-6.61-1c-4.21,3.91.65,12.37,2.69,14.45C469.08,191.69,472.85,185.37,470.27,180.5ZM463,198.88c-2.19,2.58-4.91,4.8-4.75,9.29.34,9.19,12.13,8.34,15.08,2.28C469.79,206.73,466.42,202.8,463,198.88Z"/><path class="cls-1" d="M571.06,331.6q-16.65-1.29-26.56-8.12a33.52,33.52,0,0,1-10.72-11.79,308.74,308.74,0,0,1,26.71-22.39q5.32-4,10.57-8.21v-3.76q-6.36,5.19-12.82,10.07c-9.19,6.79-17.34,12.32-25.75,21.5a53.17,53.17,0,0,1-3.79-22.19,125.31,125.31,0,0,1,8.09-38.55,219.08,219.08,0,0,1,24.88-48.09,153.05,153.05,0,0,1,9.39-12.33v-4.23a143,143,0,0,0-12,15.13,216.38,216.38,0,0,0-25,48.61,128.24,128.24,0,0,0-8.27,39.5,54.47,54.47,0,0,0,4,23.41,3.75,3.75,0,0,1,.44.9c-.58.6-1.14,1.22-1.7,1.83a4.76,4.76,0,0,1,1.14,3.07c.65-.72,1.3-1.44,2-2.14a35.9,35.9,0,0,0,11.21,12.12q10.55,7.28,28.14,8.51Z"/></g></svg>