<?xml version="1.0" encoding="utf-8"?>
<!-- Generator: Adobe Illustrator 14.0.0, SVG Export Plug-In . SVG Version: 6.00 Build 43363)  -->
<!DOCTYPE svg PUBLIC "-//W3C//DTD SVG 1.1//EN" "http://www.w3.org/Graphics/SVG/1.1/DTD/svg11.dtd">
<svg version="1.1" id="Layer_1" xmlns="http://www.w3.org/2000/svg" xmlns:xlink="http://www.w3.org/1999/xlink" x="0px" y="0px"
	 width="465.79px" height="144.21px" viewBox="0 0 465.79 144.21" enable-background="new 0 0 465.79 144.21" xml:space="preserve">
<g>
	<path d="M149.261,37.427h-0.658v-8.245h0.658c0.815,4.574,3.196,6.862,7.144,6.862c1.37,0,2.509-0.367,3.417-1.102
		s1.363-1.679,1.363-2.833c0-1.298-0.667-2.458-2-3.478c-3.151-1.836-5.74-3.418-7.768-4.747c-2.027-1.329-3.041-3.086-3.041-5.271
		c0-1.799,0.676-3.303,2.027-4.512s3.021-1.813,5.009-1.813c1.289,0,2.641,0.313,4.055,0.939c0.672,0.296,1.142,0.443,1.41,0.443
		c0.618,0,1.025-0.461,1.222-1.383h0.658v8.312h-0.658c-0.349-2.453-1.152-4.214-2.41-5.284c-1.258-1.069-2.67-1.604-4.236-1.604
		c-1.164,0-2.164,0.356-3.001,1.067c-0.837,0.712-1.256,1.583-1.256,2.612c0,0.662,0.284,1.367,0.853,2.114
		c0.568,0.748,2.28,1.892,5.136,3.432c1.754,0.939,3.083,1.712,3.988,2.315c0.904,0.604,1.658,1.388,2.263,2.351
		c0.604,0.962,0.906,2.007,0.906,3.135c0,1.916-0.728,3.51-2.182,4.78c-1.455,1.271-3.247,1.907-5.378,1.907
		c-1.154,0-2.583-0.282-4.283-0.846c-1.047-0.35-1.768-0.524-2.162-0.524C149.754,36.057,149.396,36.514,149.261,37.427z"/>
	<path d="M194.859,36.876h-9.48v-0.658c1.629-0.08,2.444-0.568,2.444-1.463c0-0.52-0.237-1.344-0.711-2.471l-1.45-3.451h-9.306
		l-1.638,3.786c-0.394,0.913-0.591,1.611-0.591,2.095c0,0.868,0.926,1.37,2.78,1.504v0.658h-7.573v-0.658
		c0.913-0.161,1.591-0.409,2.034-0.745c0.443-0.336,1.081-1.47,1.913-3.403l8.46-19.779h0.617l8.366,19.994
		c0.582,1.396,1.141,2.383,1.678,2.96c0.537,0.578,1.356,0.902,2.458,0.974V36.876z M185.165,27.517l-4.082-9.708l-4.176,9.708
		H185.165z"/>
	<path d="M219.282,18.479h-0.671c-0.25-2.757-1.714-4.135-4.391-4.135h-3.397v18.369c0,1.575,0.217,2.553,0.651,2.934
		c0.434,0.381,1.067,0.57,1.9,0.57h0.846v0.658h-10.205v-0.658h0.859c0.734,0,1.343-0.188,1.826-0.563s0.726-1.356,0.726-2.94
		V14.345h-2.887c-1.513,0-2.652,0.279-3.417,0.839c-0.765,0.56-1.21,1.658-1.336,3.296h-0.671l0.282-5.639h19.618L219.282,18.479z"
		/>
	<path d="M248.752,13.498h-0.899c-0.904,0-1.556,0.287-1.954,0.859c-0.398,0.573-0.598,1.531-0.598,2.874v9.748
		c0,2.05-0.196,3.82-0.59,5.311c-0.395,1.491-1.323,2.722-2.787,3.693c-1.463,0.971-3.422,1.457-5.874,1.457
		c-2.373,0-4.304-0.433-5.794-1.296c-1.49-0.864-2.468-1.979-2.934-3.344c-0.465-1.365-0.698-3.472-0.698-6.317v-9.387
		c0-1.227-0.163-2.133-0.49-2.719c-0.327-0.586-1.027-0.88-2.102-0.88h-0.9v-0.657h10.38v0.657h-0.927
		c-0.761,0-1.378,0.211-1.853,0.632c-0.475,0.42-0.712,1.409-0.712,2.967V27.57c0,1.987,0.192,3.57,0.577,4.747
		c0.385,1.177,1.057,2.072,2.015,2.686c0.958,0.613,2.175,0.92,3.652,0.92c1.414,0,2.741-0.303,3.981-0.906
		c1.239-0.604,2.125-1.433,2.658-2.484s0.799-2.952,0.799-5.7v-9.735c0-1.593-0.224-2.592-0.671-2.994
		c-0.448-0.402-1.074-0.604-1.88-0.604h-0.9v-0.657h8.5V13.498z"/>
	<path d="M276.424,36.876h-6.418l-8.138-11.239c-0.6,0.027-1.087,0.04-1.464,0.04c-0.196,0-0.545-0.013-1.047-0.04v6.982
		c0,1.594,0.222,2.592,0.664,2.995c0.443,0.402,1.059,0.604,1.847,0.604h0.94v0.658H252.51v-0.658h0.912
		c0.994,0,1.668-0.257,2.021-0.771s0.53-1.457,0.53-2.827V17.097c0-1.593-0.224-2.592-0.671-2.994
		c-0.448-0.402-1.074-0.604-1.881-0.604h-0.912v-0.657h8.754c2.148,0,3.875,0.139,5.177,0.416c1.303,0.277,2.433,0.948,3.391,2.014
		s1.437,2.318,1.437,3.76c0,3.223-1.974,5.272-5.922,6.15l4.969,6.889c1.235,1.709,2.285,2.802,3.148,3.275
		c0.864,0.475,1.852,0.766,2.961,0.873V36.876z M259.358,14.519v10.004h0.994c2.121,0,3.807-0.459,5.055-1.376
		c1.249-0.918,1.873-2.214,1.873-3.888c0-1.728-0.521-3.006-1.564-3.834c-1.043-0.827-2.235-1.242-3.578-1.242
		C261,14.183,260.075,14.295,259.358,14.519z"/>
	<path d="M279.47,36.876v-0.658h0.913c1.012,0,1.689-0.26,2.034-0.778c0.345-0.52,0.517-1.459,0.517-2.82V17.097
		c0-1.603-0.226-2.603-0.678-3.001s-1.076-0.598-1.873-0.598h-0.913v-0.657h9.789c2.729,0,5.087,0.266,7.069,0.799
		c1.982,0.532,3.704,1.783,5.163,3.753c1.459,1.969,2.188,4.417,2.188,7.345c0,2.265-0.494,4.333-1.483,6.203
		c-0.989,1.871-2.466,3.328-4.431,4.371c-1.966,1.043-4.483,1.564-7.554,1.564H279.47z M286.332,14.707v20.437
		c1.504,0.331,2.762,0.497,3.773,0.497c3.169,0,5.55-1.074,7.144-3.223s2.391-4.65,2.391-7.506c0-3.223-0.878-5.816-2.633-7.781
		c-1.754-1.965-4.1-2.948-7.035-2.948C288.905,14.183,287.692,14.357,286.332,14.707z"/>
	<path d="M333.622,36.876h-9.48v-0.658c1.63-0.08,2.444-0.568,2.444-1.463c0-0.52-0.237-1.344-0.712-2.471l-1.45-3.451h-9.306
		l-1.638,3.786c-0.394,0.913-0.591,1.611-0.591,2.095c0,0.868,0.927,1.37,2.779,1.504v0.658h-7.573v-0.658
		c0.913-0.161,1.591-0.409,2.034-0.745s1.081-1.47,1.914-3.403l8.459-19.779h0.618l8.365,19.994c0.582,1.396,1.142,2.383,1.679,2.96
		c0.537,0.578,1.355,0.902,2.457,0.974V36.876z M323.926,27.517l-4.082-9.708l-4.176,9.708H323.926z"/>
	<path d="M362.461,13.498h-0.47c-0.563,0-1.19,0.199-1.88,0.598s-1.643,1.551-2.86,3.458l-5.801,9.131v6.029
		c0,1.575,0.224,2.553,0.672,2.934c0.447,0.381,1.097,0.57,1.946,0.57h0.779v0.658h-10.205v-0.658h0.846
		c1.048,0,1.736-0.25,2.068-0.752c0.331-0.501,0.496-1.419,0.496-2.752v-5.693l-6.605-10.071c-0.672-1.021-1.15-1.701-1.438-2.041
		c-0.286-0.34-0.725-0.66-1.315-0.96s-1.119-0.45-1.585-0.45v-0.657h10.286v0.657h-0.537c-1.486,0-2.229,0.52-2.229,1.558
		c0,0.438,0.358,1.209,1.074,2.31l5.022,7.734l4.713-7.398c0.707-1.11,1.061-1.938,1.061-2.484c0-1.146-0.81-1.719-2.431-1.719
		v-0.657h8.393V13.498z"/>
</g>
<g>
	<path d="M25.457,106.948h-0.953c-1.211,0-1.991,0.293-2.338,0.879c-0.347,0.585-0.521,1.623-0.521,3.112v13.03
		c0,2.999-0.628,5.335-1.884,7.008c-1.256,1.673-2.902,2.509-4.937,2.509c-1.072,0-2.003-0.275-2.792-0.826
		c-0.789-0.551-1.184-1.278-1.184-2.182c0-1.38,0.67-2.07,2.011-2.07c0.844,0,1.643,0.874,2.397,2.621
		c0.298,0.705,0.686,1.058,1.162,1.058c0.973,0,1.459-0.983,1.459-2.949v-18.198c0-1.658-0.211-2.738-0.633-3.239
		s-1.169-0.752-2.241-0.752h-0.968v-0.73h11.422V106.948z"/>
	<path d="M55.554,106.948h-0.998c-1.003,0-1.725,0.317-2.167,0.953c-0.442,0.635-0.663,1.697-0.663,3.187V121.9
		c0,2.273-0.218,4.236-0.655,5.89s-1.467,3.019-3.09,4.096c-1.623,1.077-3.795,1.615-6.516,1.615c-2.631,0-4.773-0.479-6.426-1.437
		c-1.653-0.958-2.738-2.194-3.254-3.708c-0.517-1.515-0.774-3.85-0.774-7.008v-10.409c0-1.36-0.182-2.365-0.544-3.016
		s-1.139-0.976-2.331-0.976h-0.998v-0.73H38.65v0.73h-1.027c-0.844,0-1.529,0.233-2.056,0.699c-0.526,0.467-0.789,1.564-0.789,3.292
		v11.616c0,2.204,0.213,3.959,0.641,5.265c0.427,1.306,1.171,2.298,2.233,2.979c1.063,0.68,2.413,1.02,4.051,1.02
		c1.569,0,3.041-0.335,4.416-1.005c1.375-0.67,2.358-1.589,2.949-2.755c0.59-1.167,0.886-3.274,0.886-6.322v-10.797
		c0-1.768-0.249-2.874-0.745-3.321c-0.496-0.447-1.191-0.67-2.085-0.67h-0.998v-0.73h9.427V106.948z"/>
	<path d="M80.929,125.638l-2.278,7.238H58.009v-0.729h0.998c1.122,0,1.877-0.285,2.264-0.856c0.388-0.571,0.581-1.621,0.581-3.15
		v-17.2c0-1.777-0.251-2.887-0.752-3.329c-0.501-0.441-1.199-0.662-2.093-0.662h-0.998v-0.73h12.078v0.73
		c-1.112,0-1.998,0.104-2.658,0.313s-1.127,0.523-1.4,0.945c-0.273,0.423-0.41,1.482-0.41,3.18v16.754
		c0,1.341,0.194,2.183,0.581,2.524c0.387,0.343,1.563,0.515,3.529,0.515h1.951c1.579,0,2.82-0.095,3.723-0.283
		s1.752-0.673,2.546-1.452c0.794-0.779,1.574-2.093,2.338-3.939L80.929,125.638z"/>
	<path d="M111.502,106.948h-0.521c-0.625,0-1.32,0.221-2.085,0.662c-0.765,0.442-1.822,1.721-3.172,3.835l-6.434,10.127v6.687
		c0,1.748,0.249,2.833,0.745,3.255c0.496,0.422,1.216,0.633,2.159,0.633h0.864v0.729H91.74v-0.729h0.938
		c1.162,0,1.926-0.278,2.294-0.834c0.367-0.557,0.551-1.574,0.551-3.054v-6.314l-7.327-11.169c-0.745-1.132-1.276-1.887-1.594-2.264
		c-0.317-0.377-0.804-0.732-1.459-1.064c-0.655-0.333-1.241-0.499-1.758-0.499v-0.73h11.408v0.73h-0.596
		c-1.648,0-2.473,0.575-2.473,1.728c0,0.486,0.397,1.34,1.191,2.562l5.57,8.578l5.227-8.206c0.784-1.231,1.176-2.149,1.176-2.755
		c0-1.271-0.898-1.906-2.695-1.906v-0.73h9.308V106.948z"/>
</g>
<g>
	<path d="M397.906,120.396v7.76c0,1.768,0.248,2.874,0.745,3.32c0.496,0.447,1.186,0.671,2.07,0.671h1.027v0.729h-11.424v-0.729
		h0.998c1.112,0,1.859-0.278,2.242-0.834c0.382-0.556,0.572-1.608,0.572-3.157v-17.216c0-1.777-0.245-2.887-0.736-3.329
		c-0.492-0.441-1.184-0.662-2.078-0.662h-0.998v-0.73h9.77c3.693,0,6.372,0.718,8.035,2.152c1.663,1.436,2.494,3.175,2.494,5.22
		c0,2.284-0.739,4.081-2.219,5.392c-1.479,1.311-3.484,1.966-6.016,1.966C401.108,120.947,399.614,120.763,397.906,120.396z
		 M397.906,108.185v11.095c1.39,0.258,2.468,0.387,3.231,0.387c1.589,0,2.822-0.588,3.701-1.765
		c0.879-1.176,1.318-2.484,1.318-3.924c0-1.996-0.534-3.522-1.602-4.58c-1.067-1.057-2.425-1.586-4.072-1.586
		C399.817,107.812,398.958,107.937,397.906,108.185z"/>
	<path d="M450.057,132.876h-11.318v-0.729h0.938c0.834,0,1.514-0.209,2.041-0.626c0.525-0.417,0.789-1.504,0.789-3.262v-17.811
		l-10.276,22.428h-0.655l-10.306-22.428v17.811c0,1.758,0.243,2.845,0.729,3.262s1.191,0.626,2.115,0.626h0.938v0.729h-9.277v-0.729
		h0.938c0.814,0,1.49-0.209,2.025-0.626c0.537-0.417,0.805-1.504,0.805-3.262v-17.424c0-1.38-0.223-2.373-0.67-2.979
		s-1.479-0.908-3.098-0.908v-0.73h7.551l9.664,20.865l9.518-20.865h7.551v0.73h-0.924c-0.824,0-1.504,0.211-2.041,0.633
		c-0.535,0.422-0.804,1.506-0.804,3.254v17.424c0,1.738,0.245,2.82,0.737,3.247c0.491,0.427,1.193,0.641,2.107,0.641h0.924V132.876z
		"/>
</g>
<g>
	<path d="M21.784,61.259c-0.896,1.999-1.343,3.963-1.343,5.892c0,3.239,1.274,5.994,3.824,8.268c2.548,2.273,5.478,3.41,8.785,3.41
		c4.341,0,7.664-1.566,9.973-4.702c2.308-3.135,3.462-6.976,3.462-11.523c0-2.411-0.294-4.736-0.878-6.976
		c-0.586-2.238-1.671-4.271-3.256-6.098c-1.585-1.825-3.583-2.807-5.994-2.945c-0.965,0-2.17,0.5-3.617,1.498
		c-1.447,1-2.653,1.499-3.617,1.499c-0.966,0-1.844-0.345-2.635-1.034c-0.793-0.688-1.224-1.515-1.292-2.48
		c0-1.997,2.135-2.997,6.408-2.997c1.86,0,3.582,0.14,5.167,0.414c2.687-1.102,4.736-2.91,6.149-5.426
		c1.411-2.515,2.119-5.287,2.119-8.32c0-4.201-1.034-7.87-3.101-11.006c-2.067-3.135-5.03-4.703-8.888-4.703
		c-2.48,0-4.617,0.76-6.408,2.274c-1.792,1.516-2.687,3.479-2.687,5.891c0,2.687,1.034,5.167,3.101,7.441
		c-0.827,0.552-1.964,0.826-3.411,0.826c-1.653-0.067-3.049-0.739-4.186-2.015c-1.137-1.274-1.705-2.739-1.705-4.393
		c0-3.788,1.757-6.734,5.271-8.837c3.514-2.101,7.269-3.151,11.265-3.151c4.961,0,9.387,1.585,13.28,4.754
		c3.892,3.17,5.839,7.2,5.839,12.092c0,3.927-1.085,7.286-3.255,10.076c-2.17,2.791-5.186,4.565-9.043,5.322
		c4.134,0.827,7.612,2.945,10.438,6.356c2.824,3.41,4.237,7.218,4.237,11.42c0,6.201-2.325,11.059-6.976,14.572
		s-10.18,5.271-16.587,5.271c-4.547,0-8.717-1.103-12.505-3.307c-3.79-2.205-5.684-5.442-5.684-9.715
		c0-2.274,0.74-4.116,2.222-5.529C17.735,61.967,19.578,61.259,21.784,61.259z"/>
	<path d="M85.136,81.929c-6.959,0-12.541-3.824-16.742-11.472c-3.514-6.062-5.271-13.883-5.271-23.46
		c0-3.651,0.378-7.354,1.137-11.11c0.757-3.754,1.928-7.492,3.514-11.213c1.584-3.721,3.892-6.752,6.924-9.095
		c3.031-2.342,6.511-3.514,10.438-3.514c3.995,0,7.509,1.172,10.542,3.514c3.031,2.343,5.338,5.357,6.924,9.043
		c1.584,3.687,2.755,7.425,3.514,11.213c0.757,3.79,1.137,7.511,1.137,11.162c0,3.652-0.379,7.373-1.137,11.161
		c-0.759,3.79-1.93,7.528-3.514,11.214c-1.586,3.687-3.894,6.701-6.924,9.043C92.646,80.758,89.131,81.929,85.136,81.929z
		 M85.136,79.345c2.755,0,5.081-1.273,6.976-3.823c1.895-2.549,3.22-5.855,3.979-9.922c0.757-4.064,1.256-7.526,1.499-10.387
		c0.241-2.858,0.362-5.666,0.362-8.423c0-2.755-0.121-5.563-0.362-8.423c-0.242-2.858-0.741-6.32-1.499-10.387
		c-0.759-4.064-2.084-7.371-3.979-9.921c-1.896-2.549-4.221-3.824-6.976-3.824c-2.273,0-4.237,0.914-5.891,2.739
		c-1.654,1.826-2.912,3.979-3.772,6.459c-0.862,2.48-1.55,5.392-2.067,8.732c-0.517,3.343-0.827,6.098-0.93,8.269
		c-0.103,2.17-0.155,4.289-0.155,6.355c0,2.067,0.052,4.186,0.155,6.356c0.104,2.17,0.414,4.927,0.93,8.268
		c0.517,3.343,1.205,6.253,2.067,8.733c0.861,2.48,2.119,4.634,3.772,6.459C80.899,78.433,82.863,79.345,85.136,79.345z"/>
</g>
<g>
	<path d="M194.061,117.634l-3.927,15.502h-40.099l0.93-4.237c4.202-3.514,7.906-6.821,11.11-9.922
		c3.204-3.1,6.545-6.769,10.025-11.006c3.478-4.237,6.183-8.698,8.113-13.384c1.928-4.685,2.894-9.336,2.894-13.952
		c0-3.721-1.206-6.977-3.617-9.767c-2.412-2.79-5.443-4.186-9.095-4.186c-3.652,0-6.753,1.206-9.301,3.617
		c-2.55,2.412-3.824,5.443-3.824,9.095c0,2.066,0.568,4.082,1.705,6.046c1.137,1.964,2.636,3.291,4.496,3.979
		c-0.62,1.724-2.17,2.584-4.65,2.584c-2.274,0-3.997-1.102-5.167-3.308c-1.172-2.204-1.757-4.547-1.757-7.027
		c0-5.167,1.86-9.335,5.581-12.505c3.721-3.169,8.199-4.754,13.436-4.754c5.788,0,10.712,1.826,14.779,5.478
		c4.064,3.652,6.098,8.337,6.098,14.055c0,2.55-0.397,5.1-1.188,7.648c-0.793,2.55-1.689,4.806-2.687,6.77
		c-1,1.963-2.55,4.169-4.651,6.614c-2.103,2.446-3.824,4.376-5.167,5.787c-1.344,1.413-3.428,3.273-6.252,5.581
		c-2.826,2.309-4.806,3.894-5.943,4.754c-1.137,0.862-3.152,2.36-6.046,4.495h24.494c0.895,0,1.688-0.137,2.377-0.413
		c0.688-0.274,1.292-0.757,1.809-1.446c0.517-0.688,0.912-1.274,1.188-1.758c0.274-0.48,0.62-1.239,1.033-2.273
		c0.414-1.033,0.724-1.722,0.93-2.066H194.061z"/>
	<path d="M225.375,134.272c-6.959,0-12.541-3.824-16.742-11.472c-3.514-6.062-5.271-13.883-5.271-23.46
		c0-3.651,0.378-7.354,1.137-11.11c0.757-3.754,1.928-7.492,3.514-11.213c1.584-3.721,3.892-6.752,6.924-9.095
		c3.031-2.342,6.511-3.514,10.438-3.514c3.995,0,7.509,1.172,10.542,3.514c3.031,2.343,5.339,5.357,6.925,9.043
		c1.584,3.687,2.755,7.425,3.514,11.213c0.757,3.79,1.137,7.511,1.137,11.162c0,3.652-0.38,7.373-1.137,11.161
		c-0.759,3.79-1.93,7.528-3.514,11.214c-1.586,3.687-3.894,6.701-6.925,9.043C232.884,133.102,229.37,134.272,225.375,134.272z
		 M225.375,131.688c2.755,0,5.081-1.273,6.976-3.823c1.895-2.549,3.22-5.855,3.979-9.922c0.757-4.064,1.256-7.526,1.498-10.387
		c0.24-2.858,0.361-5.666,0.361-8.423c0-2.755-0.121-5.563-0.361-8.423c-0.242-2.858-0.741-6.32-1.498-10.387
		c-0.76-4.064-2.085-7.371-3.979-9.921c-1.896-2.549-4.221-3.824-6.976-3.824c-2.273,0-4.237,0.914-5.891,2.739
		c-1.654,1.826-2.912,3.979-3.772,6.459c-0.862,2.48-1.55,5.392-2.067,8.732c-0.517,3.343-0.827,6.098-0.93,8.269
		c-0.103,2.17-0.155,4.289-0.155,6.355c0,2.067,0.052,4.186,0.155,6.356c0.104,2.17,0.414,4.927,0.93,8.268
		c0.517,3.343,1.205,6.253,2.067,8.733c0.861,2.48,2.119,4.634,3.772,6.459C221.138,130.776,223.102,131.688,225.375,131.688z"/>
	<path d="M300.922,117.634l-3.926,15.502h-40.1l0.93-4.237c4.201-3.514,7.906-6.821,11.109-9.922
		c3.204-3.1,6.545-6.769,10.025-11.006c3.479-4.237,6.184-8.698,8.113-13.384c1.928-4.685,2.893-9.336,2.893-13.952
		c0-3.721-1.205-6.977-3.617-9.767s-5.443-4.186-9.094-4.186c-3.652,0-6.754,1.206-9.302,3.617c-2.55,2.412-3.823,5.443-3.823,9.095
		c0,2.066,0.568,4.082,1.705,6.046s2.635,3.291,4.495,3.979c-0.62,1.724-2.17,2.584-4.65,2.584c-2.274,0-3.997-1.102-5.167-3.308
		c-1.173-2.204-1.758-4.547-1.758-7.027c0-5.167,1.861-9.335,5.581-12.505c3.721-3.169,8.198-4.754,13.435-4.754
		c5.789,0,10.713,1.826,14.779,5.478c4.064,3.652,6.098,8.337,6.098,14.055c0,2.55-0.396,5.1-1.188,7.648
		c-0.793,2.55-1.689,4.806-2.688,6.77c-1,1.963-2.551,4.169-4.65,6.614c-2.104,2.446-3.824,4.376-5.168,5.787
		c-1.344,1.413-3.428,3.273-6.252,5.581c-2.826,2.309-4.807,3.894-5.943,4.754c-1.137,0.862-3.152,2.36-6.046,4.495h24.493
		c0.895,0,1.688-0.137,2.377-0.413c0.689-0.274,1.293-0.757,1.809-1.446c0.518-0.688,0.914-1.274,1.189-1.758
		c0.273-0.48,0.619-1.239,1.033-2.273c0.414-1.033,0.723-1.722,0.93-2.066H300.922z"/>
	<path d="M354.354,117.634l-3.928,15.502h-40.1l0.93-4.237c4.201-3.514,7.906-6.821,11.111-9.922
		c3.203-3.1,6.543-6.769,10.023-11.006c3.479-4.237,6.184-8.698,8.113-13.384c1.928-4.685,2.895-9.336,2.895-13.952
		c0-3.721-1.207-6.977-3.617-9.767c-2.414-2.79-5.445-4.186-9.096-4.186c-3.652,0-6.754,1.206-9.301,3.617
		c-2.551,2.412-3.824,5.443-3.824,9.095c0,2.066,0.568,4.082,1.705,6.046s2.635,3.291,4.496,3.979
		c-0.621,1.724-2.17,2.584-4.65,2.584c-2.273,0-3.998-1.102-5.168-3.308c-1.172-2.204-1.758-4.547-1.758-7.027
		c0-5.167,1.861-9.335,5.582-12.505c3.721-3.169,8.197-4.754,13.436-4.754c5.787,0,10.713,1.826,14.777,5.478
		c4.066,3.652,6.098,8.337,6.098,14.055c0,2.55-0.396,5.1-1.188,7.648c-0.793,2.55-1.689,4.806-2.688,6.77
		c-1,1.963-2.549,4.169-4.65,6.614c-2.102,2.446-3.824,4.376-5.168,5.787c-1.344,1.413-3.428,3.273-6.252,5.581
		c-2.826,2.309-4.807,3.894-5.943,4.754c-1.137,0.862-3.152,2.36-6.045,4.495h24.494c0.895,0,1.688-0.137,2.377-0.413
		c0.688-0.274,1.291-0.757,1.809-1.446c0.516-0.688,0.912-1.274,1.188-1.758c0.275-0.48,0.621-1.239,1.033-2.273
		c0.414-1.033,0.725-1.722,0.932-2.066H354.354z"/>
</g>
<g>
	<path d="M441.288,65.29l-3.928,15.502h-40.1l0.93-4.237c4.201-3.514,7.906-6.821,11.111-9.922c3.203-3.1,6.543-6.769,10.023-11.006
		c3.479-4.237,6.184-8.698,8.113-13.384c1.928-4.685,2.895-9.336,2.895-13.952c0-3.721-1.207-6.977-3.617-9.767
		c-2.414-2.79-5.445-4.186-9.096-4.186c-3.652,0-6.754,1.206-9.301,3.617c-2.551,2.412-3.824,5.443-3.824,9.095
		c0,2.066,0.568,4.082,1.705,6.046s2.635,3.291,4.496,3.979c-0.621,1.724-2.17,2.584-4.65,2.584c-2.273,0-3.998-1.102-5.168-3.308
		c-1.172-2.204-1.758-4.547-1.758-7.027c0-5.167,1.861-9.335,5.582-12.505c3.721-3.169,8.197-4.754,13.436-4.754
		c5.787,0,10.713,1.826,14.777,5.478c4.066,3.652,6.098,8.337,6.098,14.055c0,2.55-0.396,5.1-1.188,7.648
		c-0.793,2.55-1.689,4.806-2.688,6.77c-1,1.963-2.549,4.169-4.65,6.614c-2.102,2.446-3.824,4.376-5.168,5.787
		c-1.344,1.413-3.428,3.273-6.252,5.581c-2.826,2.309-4.807,3.894-5.943,4.754c-1.137,0.862-3.152,2.36-6.045,4.495h24.494
		c0.895,0,1.688-0.137,2.377-0.413c0.688-0.274,1.291-0.757,1.809-1.446c0.516-0.688,0.912-1.274,1.188-1.758
		c0.275-0.48,0.621-1.239,1.033-2.273c0.414-1.033,0.725-1.722,0.932-2.066H441.288z"/>
</g>
<line stroke="#000000" stroke-width="4" stroke-miterlimit="10" x1="145.42" y1="49.481" x2="366.421" y2="49.481"/>
<line stroke="#000000" stroke-width="4" stroke-miterlimit="10" x1="387.283" y1="93.431" x2="456.748" y2="93.431"/>
<line stroke="#000000" stroke-width="4" stroke-miterlimit="10" x1="10.342" y1="93.431" x2="115.57" y2="93.431"/>
<line stroke="#000000" stroke-width="4" stroke-miterlimit="10" x1="130.28" y1="11.394" x2="130.28" y2="134.394"/>
<line stroke="#000000" stroke-width="4" stroke-miterlimit="10" x1="377.281" y1="11.394" x2="377.281" y2="134.394"/>
</svg>
