<svg xmlns="http://www.w3.org/2000/svg" viewBox="0 0 278.58 305.35"><defs><style>.cls-1{fill:#e6e7e8;}</style></defs><g id="Layer_21" data-name="Layer 21"><path class="cls-1" d="M150.74,305.29h42.6a77,77,0,0,1-22-7.85,54.52,54.52,0,0,1-16.74-14.27,24.73,24.73,0,0,0,4.38-.76q59.42-10.05,119.54-55.26V220Q217.42,266.85,158,276.89a61.87,61.87,0,0,1-7,1.14q-12.18-21.12-12.18-47.18a132.42,132.42,0,0,1,1.14-17.12q5-36.53,24.16-73.72a327,327,0,0,1,45.47-66.87q26.25-29.67,52.7-43.76a104.65,104.65,0,0,1,16.24,10.75V33.05a109.58,109.58,0,0,0-10.16-6.71q5.13-2.4,10.16-4.34V16.08a163.34,163.34,0,0,0-16.24,7Q234.83,8.83,197.75,5.79q-7.62-.57-15.22-.57-63,0-111.3,34.06-28.53,20.16-47,53.65-21.3,41.28-21.3,77,0,3.81.19,7.42,3,43,29.48,71.15,35,36.91,97.41,36.91A64.08,64.08,0,0,0,150.74,305.29ZM75.42,270.52a105.59,105.59,0,0,1-38.62-26Q11.69,217.91,8.83,177c-.12-2.4-.19-4.88-.19-7.42q0-34.25,20.55-74Q47.07,63.25,74.56,43.94t55.65-26.16q28.15-6.85,52.13-6.85,37.85,0,69.62,13.51l4,1.9q-28.72,15.79-58,44.52a338.17,338.17,0,0,0-51.37,64.58Q124.51,171.31,120,195.66t-4.47,35.19a111.73,111.73,0,0,0,11.22,48.89Q98.45,279.74,75.42,270.52Z"/></g></svg>